<svg width="122" height="13" viewBox="0 0 122 13" fill="none" xmlns="http://www.w3.org/2000/svg">
<path d="M1.014 2.718V12H2.249V7.749H6.513V6.709H2.249V3.758H7.111V2.718H1.014ZM9.16684 4.07V2.718H8.06184V4.07H9.16684ZM8.06184 5.279V12H9.16684V5.279H8.06184ZM10.5787 5.279V12H11.6837V8.204C11.6837 7.90067 11.7227 7.62333 11.8007 7.372C11.8873 7.112 12.013 6.88667 12.1777 6.696C12.3423 6.50533 12.546 6.358 12.7887 6.254C13.04 6.15 13.3347 6.098 13.6727 6.098C14.0973 6.098 14.431 6.21933 14.6737 6.462C14.9163 6.70467 15.0377 7.034 15.0377 7.45V12H16.1427V7.58C16.1427 7.216 16.1037 6.88667 16.0257 6.592C15.9563 6.28867 15.8307 6.02867 15.6487 5.812C15.4667 5.59533 15.2283 5.42633 14.9337 5.305C14.639 5.18367 14.2707 5.123 13.8287 5.123C12.832 5.123 12.104 5.53033 11.6447 6.345H11.6187V5.279H10.5787ZM18.3083 8.698C18.3083 8.36867 18.343 8.048 18.4123 7.736C18.4816 7.424 18.5943 7.14667 18.7503 6.904C18.9063 6.66133 19.1143 6.46633 19.3743 6.319C19.6343 6.17167 19.9506 6.098 20.3233 6.098C20.7046 6.098 21.0296 6.17167 21.2983 6.319C21.567 6.45767 21.7836 6.644 21.9483 6.878C22.1216 7.112 22.2473 7.385 22.3253 7.697C22.4033 8.00033 22.4423 8.31667 22.4423 8.646C22.4423 8.958 22.4033 9.26567 22.3253 9.569C22.256 9.87233 22.139 10.1453 21.9743 10.388C21.8096 10.622 21.5973 10.8127 21.3373 10.96C21.0773 11.1073 20.761 11.181 20.3883 11.181C20.033 11.181 19.721 11.1117 19.4523 10.973C19.1923 10.8343 18.9756 10.648 18.8023 10.414C18.6376 10.18 18.512 9.91567 18.4253 9.621C18.3473 9.31767 18.3083 9.01 18.3083 8.698ZM23.5083 12V2.718H22.4033V6.176H22.3773C22.256 5.97667 22.1043 5.812 21.9223 5.682C21.749 5.54333 21.5626 5.435 21.3633 5.357C21.164 5.27033 20.9646 5.20967 20.7653 5.175C20.566 5.14033 20.3796 5.123 20.2063 5.123C19.695 5.123 19.2443 5.21833 18.8543 5.409C18.473 5.591 18.1523 5.84233 17.8923 6.163C17.641 6.475 17.4503 6.84333 17.3203 7.268C17.199 7.69267 17.1383 8.14333 17.1383 8.62C17.1383 9.09667 17.2033 9.54733 17.3333 9.972C17.4633 10.3967 17.654 10.7693 17.9053 11.09C18.1653 11.4107 18.486 11.6663 18.8673 11.857C19.2573 12.0477 19.7123 12.143 20.2323 12.143C20.7003 12.143 21.1293 12.0607 21.5193 11.896C21.9093 11.7313 22.1953 11.4627 22.3773 11.09H22.4033V12H23.5083ZM28.2655 5.279V14.561H29.3705V11.103H29.3965C29.5179 11.3023 29.6652 11.4713 29.8385 11.61C30.0205 11.74 30.2112 11.844 30.4105 11.922C30.6099 12 30.8092 12.0563 31.0085 12.091C31.2165 12.1257 31.4029 12.143 31.5675 12.143C32.0789 12.143 32.5252 12.052 32.9065 11.87C33.2965 11.688 33.6172 11.441 33.8685 11.129C34.1285 10.8083 34.3192 10.4357 34.4405 10.011C34.5705 9.58633 34.6355 9.13567 34.6355 8.659C34.6355 8.18233 34.5705 7.73167 34.4405 7.307C34.3105 6.88233 34.1155 6.50967 33.8555 6.189C33.6042 5.85967 33.2835 5.59967 32.8935 5.409C32.5122 5.21833 32.0615 5.123 31.5415 5.123C31.0735 5.123 30.6445 5.20967 30.2545 5.383C29.8645 5.54767 29.5785 5.81633 29.3965 6.189H29.3705V5.279H28.2655ZM33.4655 8.581C33.4655 8.91033 33.4309 9.231 33.3615 9.543C33.2922 9.855 33.1795 10.1323 33.0235 10.375C32.8675 10.6177 32.6595 10.8127 32.3995 10.96C32.1482 11.1073 31.8319 11.181 31.4505 11.181C31.0692 11.181 30.7442 11.1117 30.4755 10.973C30.2069 10.8257 29.9859 10.635 29.8125 10.401C29.6479 10.167 29.5265 9.89833 29.4485 9.595C29.3705 9.283 29.3315 8.96233 29.3315 8.633C29.3315 8.321 29.3662 8.01333 29.4355 7.71C29.5135 7.40667 29.6349 7.138 29.7995 6.904C29.9642 6.66133 30.1765 6.46633 30.4365 6.319C30.6965 6.17167 31.0129 6.098 31.3855 6.098C31.7409 6.098 32.0485 6.16733 32.3085 6.306C32.5772 6.44467 32.7939 6.631 32.9585 6.865C33.1319 7.099 33.2575 7.36767 33.3355 7.671C33.4222 7.96567 33.4655 8.269 33.4655 8.581ZM40.2996 7.996H36.4386C36.4559 7.736 36.5123 7.49333 36.6076 7.268C36.7029 7.034 36.8329 6.83033 36.9976 6.657C37.1623 6.48367 37.3573 6.34933 37.5826 6.254C37.8166 6.15 38.0766 6.098 38.3626 6.098C38.6399 6.098 38.8913 6.15 39.1166 6.254C39.3506 6.34933 39.5499 6.48367 39.7146 6.657C39.8879 6.82167 40.0223 7.021 40.1176 7.255C40.2216 7.489 40.2823 7.736 40.2996 7.996ZM41.3656 9.868H40.2736C40.1783 10.31 39.9789 10.6393 39.6756 10.856C39.3809 11.0727 38.9996 11.181 38.5316 11.181C38.1676 11.181 37.8513 11.1203 37.5826 10.999C37.3139 10.8777 37.0929 10.7173 36.9196 10.518C36.7463 10.31 36.6206 10.076 36.5426 9.816C36.4646 9.54733 36.4299 9.26567 36.4386 8.971H41.4696C41.4869 8.56367 41.4479 8.13467 41.3526 7.684C41.2659 7.23333 41.1013 6.81733 40.8586 6.436C40.6246 6.05467 40.3083 5.74267 39.9096 5.5C39.5196 5.24867 39.0256 5.123 38.4276 5.123C37.9683 5.123 37.5436 5.20967 37.1536 5.383C36.7723 5.55633 36.4386 5.799 36.1526 6.111C35.8753 6.423 35.6586 6.79133 35.5026 7.216C35.3466 7.64067 35.2686 8.10867 35.2686 8.62C35.2859 9.13133 35.3596 9.60367 35.4896 10.037C35.6283 10.4703 35.8319 10.843 36.1006 11.155C36.3693 11.467 36.6986 11.7097 37.0886 11.883C37.4873 12.0563 37.9553 12.143 38.4926 12.143C39.2553 12.143 39.8879 11.9523 40.3906 11.571C40.8933 11.1897 41.2183 10.622 41.3656 9.868ZM43.121 8.646C43.121 8.23867 43.173 7.879 43.277 7.567C43.3897 7.24633 43.5413 6.97767 43.732 6.761C43.9227 6.54433 44.1437 6.37967 44.395 6.267C44.655 6.15433 44.928 6.098 45.214 6.098C45.5 6.098 45.7687 6.15433 46.02 6.267C46.28 6.37967 46.5053 6.54433 46.696 6.761C46.8867 6.97767 47.034 7.24633 47.138 7.567C47.2507 7.879 47.307 8.23867 47.307 8.646C47.307 9.05333 47.2507 9.41733 47.138 9.738C47.034 10.05 46.8867 10.3143 46.696 10.531C46.5053 10.739 46.28 10.8993 46.02 11.012C45.7687 11.1247 45.5 11.181 45.214 11.181C44.928 11.181 44.655 11.1247 44.395 11.012C44.1437 10.8993 43.9227 10.739 43.732 10.531C43.5413 10.3143 43.3897 10.05 43.277 9.738C43.173 9.41733 43.121 9.05333 43.121 8.646ZM41.951 8.646C41.951 9.14 42.0203 9.59933 42.159 10.024C42.2977 10.4487 42.5057 10.8213 42.783 11.142C43.0603 11.454 43.4027 11.701 43.81 11.883C44.2173 12.0563 44.6853 12.143 45.214 12.143C45.7513 12.143 46.2193 12.0563 46.618 11.883C47.0253 11.701 47.3677 11.454 47.645 11.142C47.9223 10.8213 48.1303 10.4487 48.269 10.024C48.4077 9.59933 48.477 9.14 48.477 8.646C48.477 8.152 48.4077 7.69267 48.269 7.268C48.1303 6.83467 47.9223 6.462 47.645 6.15C47.3677 5.82933 47.0253 5.578 46.618 5.396C46.2193 5.214 45.7513 5.123 45.214 5.123C44.6853 5.123 44.2173 5.214 43.81 5.396C43.4027 5.578 43.0603 5.82933 42.783 6.15C42.5057 6.462 42.2977 6.83467 42.159 7.268C42.0203 7.69267 41.951 8.152 41.951 8.646ZM49.5189 5.279V14.561H50.6238V11.103H50.6499C50.7712 11.3023 50.9185 11.4713 51.0918 11.61C51.2739 11.74 51.4645 11.844 51.6638 11.922C51.8632 12 52.0625 12.0563 52.2618 12.091C52.4698 12.1257 52.6562 12.143 52.8209 12.143C53.3322 12.143 53.7785 12.052 54.1598 11.87C54.5499 11.688 54.8705 11.441 55.1218 11.129C55.3818 10.8083 55.5725 10.4357 55.6938 10.011C55.8238 9.58633 55.8888 9.13567 55.8888 8.659C55.8888 8.18233 55.8238 7.73167 55.6938 7.307C55.5639 6.88233 55.3689 6.50967 55.1089 6.189C54.8575 5.85967 54.5369 5.59967 54.1469 5.409C53.7655 5.21833 53.3149 5.123 52.7949 5.123C52.3268 5.123 51.8978 5.20967 51.5079 5.383C51.1179 5.54767 50.8319 5.81633 50.6499 6.189H50.6238V5.279H49.5189ZM54.7189 8.581C54.7189 8.91033 54.6842 9.231 54.6148 9.543C54.5455 9.855 54.4329 10.1323 54.2769 10.375C54.1208 10.6177 53.9128 10.8127 53.6528 10.96C53.4015 11.1073 53.0852 11.181 52.7039 11.181C52.3225 11.181 51.9975 11.1117 51.7289 10.973C51.4602 10.8257 51.2392 10.635 51.0659 10.401C50.9012 10.167 50.7799 9.89833 50.7019 9.595C50.6239 9.283 50.5849 8.96233 50.5849 8.633C50.5849 8.321 50.6195 8.01333 50.6889 7.71C50.7669 7.40667 50.8882 7.138 51.0529 6.904C51.2175 6.66133 51.4298 6.46633 51.6899 6.319C51.9499 6.17167 52.2662 6.098 52.6389 6.098C52.9942 6.098 53.3018 6.16733 53.5618 6.306C53.8305 6.44467 54.0472 6.631 54.2119 6.865C54.3852 7.099 54.5109 7.36767 54.5888 7.671C54.6755 7.96567 54.7189 8.269 54.7189 8.581ZM56.9509 2.718V12H58.0559V2.718H56.9509ZM64.1347 7.996H60.2737C60.2911 7.736 60.3474 7.49333 60.4427 7.268C60.5381 7.034 60.6681 6.83033 60.8327 6.657C60.9974 6.48367 61.1924 6.34933 61.4177 6.254C61.6517 6.15 61.9117 6.098 62.1977 6.098C62.4751 6.098 62.7264 6.15 62.9517 6.254C63.1857 6.34933 63.3851 6.48367 63.5497 6.657C63.7231 6.82167 63.8574 7.021 63.9527 7.255C64.0567 7.489 64.1174 7.736 64.1347 7.996ZM65.2007 9.868H64.1087C64.0134 10.31 63.8141 10.6393 63.5107 10.856C63.2161 11.0727 62.8347 11.181 62.3667 11.181C62.0027 11.181 61.6864 11.1203 61.4177 10.999C61.1491 10.8777 60.9281 10.7173 60.7547 10.518C60.5814 10.31 60.4557 10.076 60.3777 9.816C60.2997 9.54733 60.2651 9.26567 60.2737 8.971H65.3047C65.3221 8.56367 65.2831 8.13467 65.1877 7.684C65.1011 7.23333 64.9364 6.81733 64.6937 6.436C64.4597 6.05467 64.1434 5.74267 63.7447 5.5C63.3547 5.24867 62.8607 5.123 62.2627 5.123C61.8034 5.123 61.3787 5.20967 60.9887 5.383C60.6074 5.55633 60.2737 5.799 59.9877 6.111C59.7104 6.423 59.4937 6.79133 59.3377 7.216C59.1817 7.64067 59.1037 8.10867 59.1037 8.62C59.1211 9.13133 59.1947 9.60367 59.3247 10.037C59.4634 10.4703 59.6671 10.843 59.9357 11.155C60.2044 11.467 60.5337 11.7097 60.9237 11.883C61.3224 12.0563 61.7904 12.143 62.3277 12.143C63.0904 12.143 63.7231 11.9523 64.2257 11.571C64.7284 11.1897 65.0534 10.622 65.2007 9.868ZM72.1073 12.897C71.9773 13.2263 71.8473 13.5037 71.7173 13.729C71.596 13.9543 71.4573 14.1363 71.3013 14.275C71.154 14.4223 70.985 14.5263 70.7943 14.587C70.6123 14.6563 70.4 14.691 70.1573 14.691C70.0273 14.691 69.8973 14.6823 69.7673 14.665C69.6373 14.6477 69.5117 14.6173 69.3903 14.574V13.56C69.4857 13.6033 69.594 13.638 69.7153 13.664C69.8453 13.6987 69.9537 13.716 70.0403 13.716C70.2657 13.716 70.452 13.6597 70.5993 13.547C70.7553 13.443 70.8723 13.2913 70.9503 13.092L71.4053 11.961L68.7403 5.279H69.9883L71.9513 10.778H71.9773L73.8623 5.279H75.0323L72.1073 12.897ZM76.4743 8.646C76.4743 8.23867 76.5263 7.879 76.6303 7.567C76.743 7.24633 76.8947 6.97767 77.0853 6.761C77.276 6.54433 77.497 6.37967 77.7483 6.267C78.0083 6.15433 78.2813 6.098 78.5673 6.098C78.8533 6.098 79.122 6.15433 79.3733 6.267C79.6333 6.37967 79.8587 6.54433 80.0493 6.761C80.24 6.97767 80.3873 7.24633 80.4913 7.567C80.604 7.879 80.6603 8.23867 80.6603 8.646C80.6603 9.05333 80.604 9.41733 80.4913 9.738C80.3873 10.05 80.24 10.3143 80.0493 10.531C79.8587 10.739 79.6333 10.8993 79.3733 11.012C79.122 11.1247 78.8533 11.181 78.5673 11.181C78.2813 11.181 78.0083 11.1247 77.7483 11.012C77.497 10.8993 77.276 10.739 77.0853 10.531C76.8947 10.3143 76.743 10.05 76.6303 9.738C76.5263 9.41733 76.4743 9.05333 76.4743 8.646ZM75.3043 8.646C75.3043 9.14 75.3737 9.59933 75.5123 10.024C75.651 10.4487 75.859 10.8213 76.1363 11.142C76.4137 11.454 76.756 11.701 77.1633 11.883C77.5707 12.0563 78.0387 12.143 78.5673 12.143C79.1047 12.143 79.5727 12.0563 79.9713 11.883C80.3787 11.701 80.721 11.454 80.9983 11.142C81.2757 10.8213 81.4837 10.4487 81.6223 10.024C81.761 9.59933 81.8303 9.14 81.8303 8.646C81.8303 8.152 81.761 7.69267 81.6223 7.268C81.4837 6.83467 81.2757 6.462 80.9983 6.15C80.721 5.82933 80.3787 5.578 79.9713 5.396C79.5727 5.214 79.1047 5.123 78.5673 5.123C78.0387 5.123 77.5707 5.214 77.1633 5.396C76.756 5.578 76.4137 5.82933 76.1363 6.15C75.859 6.462 75.651 6.83467 75.5123 7.268C75.3737 7.69267 75.3043 8.152 75.3043 8.646ZM88.3972 12V5.279H87.2922V9.075C87.2922 9.37833 87.2488 9.66 87.1622 9.92C87.0842 10.1713 86.9628 10.3923 86.7982 10.583C86.6335 10.7737 86.4255 10.921 86.1742 11.025C85.9315 11.129 85.6412 11.181 85.3032 11.181C84.8785 11.181 84.5448 11.0597 84.3022 10.817C84.0595 10.5743 83.9382 10.245 83.9382 9.829V5.279H82.8332V9.699C82.8332 10.063 82.8678 10.3967 82.9372 10.7C83.0152 10.9947 83.1452 11.2503 83.3272 11.467C83.5092 11.6837 83.7475 11.8527 84.0422 11.974C84.3368 12.0867 84.7052 12.143 85.1472 12.143C85.6412 12.143 86.0702 12.0477 86.4342 11.857C86.7982 11.6577 87.0972 11.35 87.3312 10.934H87.3572V12H88.3972ZM93.14 2.718V12H94.245V9.452L95.285 8.49L97.586 12H98.99L96.13 7.723L98.795 5.279H97.313L94.245 8.217V2.718H93.14ZM99.5162 5.279V12H100.621V8.204C100.621 7.90067 100.66 7.62333 100.738 7.372C100.825 7.112 100.951 6.88667 101.115 6.696C101.28 6.50533 101.484 6.358 101.726 6.254C101.978 6.15 102.272 6.098 102.61 6.098C103.035 6.098 103.369 6.21933 103.611 6.462C103.854 6.70467 103.975 7.034 103.975 7.45V12H105.08V7.58C105.08 7.216 105.041 6.88667 104.963 6.592C104.894 6.28867 104.768 6.02867 104.586 5.812C104.404 5.59533 104.166 5.42633 103.871 5.305C103.577 5.18367 103.208 5.123 102.766 5.123C101.77 5.123 101.042 5.53033 100.582 6.345H100.556V5.279H99.5162ZM107.246 8.646C107.246 8.23867 107.298 7.879 107.402 7.567C107.514 7.24633 107.666 6.97767 107.857 6.761C108.047 6.54433 108.268 6.37967 108.52 6.267C108.78 6.15433 109.053 6.098 109.339 6.098C109.625 6.098 109.893 6.15433 110.145 6.267C110.405 6.37967 110.63 6.54433 110.821 6.761C111.011 6.97767 111.159 7.24633 111.263 7.567C111.375 7.879 111.432 8.23867 111.432 8.646C111.432 9.05333 111.375 9.41733 111.263 9.738C111.159 10.05 111.011 10.3143 110.821 10.531C110.63 10.739 110.405 10.8993 110.145 11.012C109.893 11.1247 109.625 11.181 109.339 11.181C109.053 11.181 108.78 11.1247 108.52 11.012C108.268 10.8993 108.047 10.739 107.857 10.531C107.666 10.3143 107.514 10.05 107.402 9.738C107.298 9.41733 107.246 9.05333 107.246 8.646ZM106.076 8.646C106.076 9.14 106.145 9.59933 106.284 10.024C106.422 10.4487 106.63 10.8213 106.908 11.142C107.185 11.454 107.527 11.701 107.935 11.883C108.342 12.0563 108.81 12.143 109.339 12.143C109.876 12.143 110.344 12.0563 110.743 11.883C111.15 11.701 111.492 11.454 111.77 11.142C112.047 10.8213 112.255 10.4487 112.394 10.024C112.532 9.59933 112.602 9.14 112.602 8.646C112.602 8.152 112.532 7.69267 112.394 7.268C112.255 6.83467 112.047 6.462 111.77 6.15C111.492 5.82933 111.15 5.578 110.743 5.396C110.344 5.214 109.876 5.123 109.339 5.123C108.81 5.123 108.342 5.214 107.935 5.396C107.527 5.578 107.185 5.82933 106.908 6.15C106.63 6.462 106.422 6.83467 106.284 7.268C106.145 7.69267 106.076 8.152 106.076 8.646ZM120.261 12L122.406 5.279H121.262L119.754 10.778H119.728L118.324 5.279H117.115L115.763 10.778H115.737L114.216 5.279H112.994L115.152 12H116.348L117.7 6.657H117.726L119.091 12H120.261Z" transform="translate(-1 -2)" fill="#1DA1F2"/>
</svg>
