<svg width="219" height="21" viewBox="0 0 219 21" fill="none" xmlns="http://www.w3.org/2000/svg">
<path d="M13.0265 17L16.2905 4.862H13.6725L11.6835 13.226H11.6495L9.57546 4.862H7.07646L4.96846 13.124H4.93446L3.01346 4.862H0.344457L3.55746 17H6.26046L8.28346 8.738H8.31746L10.3745 17H13.0265ZM17.2652 4.862V17H19.6792V12.393C19.6792 11.4977 19.8265 10.8573 20.1212 10.472C20.4158 10.0753 20.8918 9.877 21.5492 9.877C22.1272 9.877 22.5295 10.0583 22.7562 10.421C22.9828 10.7723 23.0962 11.3107 23.0962 12.036V17H25.5102V11.594C25.5102 11.05 25.4592 10.557 25.3572 10.115C25.2665 9.66167 25.1022 9.282 24.8642 8.976C24.6262 8.65867 24.2975 8.415 23.8782 8.245C23.4702 8.06367 22.9432 7.973 22.2972 7.973C21.8438 7.973 21.3792 8.092 20.9032 8.33C20.4272 8.55667 20.0362 8.925 19.7302 9.435H19.6792V4.862H17.2652ZM29.4843 12.614C29.4843 12.2627 29.5183 11.917 29.5863 11.577C29.6543 11.237 29.7676 10.9367 29.9263 10.676C30.0963 10.4153 30.3173 10.2057 30.5893 10.047C30.8613 9.877 31.2013 9.792 31.6093 9.792C32.0173 9.792 32.3573 9.877 32.6293 10.047C32.9126 10.2057 33.1336 10.4153 33.2923 10.676C33.4623 10.9367 33.5813 11.237 33.6493 11.577C33.7173 11.917 33.7513 12.2627 33.7513 12.614C33.7513 12.9653 33.7173 13.311 33.6493 13.651C33.5813 13.9797 33.4623 14.28 33.2923 14.552C33.1336 14.8127 32.9126 15.0223 32.6293 15.181C32.3573 15.3397 32.0173 15.419 31.6093 15.419C31.2013 15.419 30.8613 15.3397 30.5893 15.181C30.3173 15.0223 30.0963 14.8127 29.9263 14.552C29.7676 14.28 29.6543 13.9797 29.5863 13.651C29.5183 13.311 29.4843 12.9653 29.4843 12.614ZM27.0703 12.614C27.0703 13.3167 27.178 13.9513 27.3933 14.518C27.6086 15.0847 27.9146 15.572 28.3113 15.98C28.708 16.3767 29.184 16.6827 29.7393 16.898C30.2946 17.1133 30.918 17.221 31.6093 17.221C32.3006 17.221 32.924 17.1133 33.4793 16.898C34.046 16.6827 34.5276 16.3767 34.9243 15.98C35.321 15.572 35.627 15.0847 35.8423 14.518C36.0577 13.9513 36.1653 13.3167 36.1653 12.614C36.1653 11.9113 36.0577 11.2767 35.8423 10.71C35.627 10.132 35.321 9.64467 34.9243 9.248C34.5276 8.84 34.046 8.52833 33.4793 8.313C32.924 8.08633 32.3006 7.973 31.6093 7.973C30.918 7.973 30.2946 8.08633 29.7393 8.313C29.184 8.52833 28.708 8.84 28.3113 9.248C27.9146 9.64467 27.6086 10.132 27.3933 10.71C27.178 11.2767 27.0703 11.9113 27.0703 12.614ZM45.5263 8.211V5.576H43.1123V8.211H41.6503V9.826H43.1123V15.011C43.1123 15.453 43.186 15.81 43.3333 16.082C43.4807 16.354 43.679 16.5637 43.9283 16.711C44.189 16.8583 44.4837 16.9547 44.8123 17C45.1523 17.0567 45.5093 17.085 45.8833 17.085C46.1213 17.085 46.365 17.0793 46.6143 17.068C46.8637 17.0567 47.0903 17.034 47.2943 17V15.13C47.181 15.1527 47.062 15.1697 46.9373 15.181C46.8127 15.1923 46.6823 15.198 46.5463 15.198C46.1383 15.198 45.8663 15.13 45.7303 14.994C45.5943 14.858 45.5263 14.586 45.5263 14.178V9.826H47.2943V8.211H45.5263ZM50.5849 12.614C50.5849 12.2627 50.6189 11.917 50.6869 11.577C50.7549 11.237 50.8682 10.9367 51.0269 10.676C51.1969 10.4153 51.4179 10.2057 51.6899 10.047C51.9619 9.877 52.3019 9.792 52.7099 9.792C53.1179 9.792 53.4579 9.877 53.7299 10.047C54.0132 10.2057 54.2342 10.4153 54.3929 10.676C54.5629 10.9367 54.6819 11.237 54.7499 11.577C54.8179 11.917 54.8519 12.2627 54.8519 12.614C54.8519 12.9653 54.8179 13.311 54.7499 13.651C54.6819 13.9797 54.5629 14.28 54.3929 14.552C54.2342 14.8127 54.0132 15.0223 53.7299 15.181C53.4579 15.3397 53.1179 15.419 52.7099 15.419C52.3019 15.419 51.9619 15.3397 51.6899 15.181C51.4179 15.0223 51.1969 14.8127 51.0269 14.552C50.8682 14.28 50.7549 13.9797 50.6869 13.651C50.6189 13.311 50.5849 12.9653 50.5849 12.614ZM48.1709 12.614C48.1709 13.3167 48.2786 13.9513 48.4939 14.518C48.7092 15.0847 49.0152 15.572 49.4119 15.98C49.8086 16.3767 50.2846 16.6827 50.8399 16.898C51.3952 17.1133 52.0186 17.221 52.7099 17.221C53.4012 17.221 54.0246 17.1133 54.5799 16.898C55.1466 16.6827 55.6282 16.3767 56.0249 15.98C56.4216 15.572 56.7276 15.0847 56.9429 14.518C57.1582 13.9513 57.2659 13.3167 57.2659 12.614C57.2659 11.9113 57.1582 11.2767 56.9429 10.71C56.7276 10.132 56.4216 9.64467 56.0249 9.248C55.6282 8.84 55.1466 8.52833 54.5799 8.313C54.0246 8.08633 53.4012 7.973 52.7099 7.973C52.0186 7.973 51.3952 8.08633 50.8399 8.313C50.2846 8.52833 49.8086 8.84 49.4119 9.248C49.0152 9.64467 48.7092 10.132 48.4939 10.71C48.2786 11.2767 48.1709 11.9113 48.1709 12.614ZM64.0939 9.826V17H66.5079V9.826H68.1739V8.211H66.5079V7.684C66.5079 7.32133 66.5759 7.06633 66.7119 6.919C66.8593 6.76033 67.0973 6.681 67.4259 6.681C67.7319 6.681 68.0266 6.698 68.3099 6.732V4.93C68.1059 4.91867 67.8963 4.90733 67.6809 4.896C67.4656 4.87333 67.2503 4.862 67.0349 4.862C66.0489 4.862 65.3123 5.11133 64.8249 5.61C64.3376 6.10867 64.0939 6.749 64.0939 7.531V8.211H62.6489V9.826H64.0939ZM71.3701 12.614C71.3701 12.2627 71.4041 11.917 71.4721 11.577C71.5401 11.237 71.6534 10.9367 71.8121 10.676C71.9821 10.4153 72.2031 10.2057 72.4751 10.047C72.7471 9.877 73.0871 9.792 73.4951 9.792C73.9031 9.792 74.2431 9.877 74.5151 10.047C74.7984 10.2057 75.0194 10.4153 75.1781 10.676C75.3481 10.9367 75.4671 11.237 75.5351 11.577C75.6031 11.917 75.6371 12.2627 75.6371 12.614C75.6371 12.9653 75.6031 13.311 75.5351 13.651C75.4671 13.9797 75.3481 14.28 75.1781 14.552C75.0194 14.8127 74.7984 15.0223 74.5151 15.181C74.2431 15.3397 73.9031 15.419 73.4951 15.419C73.0871 15.419 72.7471 15.3397 72.4751 15.181C72.2031 15.0223 71.9821 14.8127 71.8121 14.552C71.6534 14.28 71.5401 13.9797 71.4721 13.651C71.4041 13.311 71.3701 12.9653 71.3701 12.614ZM68.9561 12.614C68.9561 13.3167 69.0637 13.9513 69.2791 14.518C69.4944 15.0847 69.8004 15.572 70.1971 15.98C70.5937 16.3767 71.0697 16.6827 71.6251 16.898C72.1804 17.1133 72.8037 17.221 73.4951 17.221C74.1864 17.221 74.8097 17.1133 75.3651 16.898C75.9317 16.6827 76.4134 16.3767 76.8101 15.98C77.2067 15.572 77.5127 15.0847 77.7281 14.518C77.9434 13.9513 78.0511 13.3167 78.0511 12.614C78.0511 11.9113 77.9434 11.2767 77.7281 10.71C77.5127 10.132 77.2067 9.64467 76.8101 9.248C76.4134 8.84 75.9317 8.52833 75.3651 8.313C74.8097 8.08633 74.1864 7.973 73.4951 7.973C72.8037 7.973 72.1804 8.08633 71.6251 8.313C71.0697 8.52833 70.5937 8.84 70.1971 9.248C69.8004 9.64467 69.4944 10.132 69.2791 10.71C69.0637 11.2767 68.9561 11.9113 68.9561 12.614ZM79.6886 4.862V17H82.1026V4.862H79.6886ZM84.0714 4.862V17H86.4854V4.862H84.0714ZM90.5283 12.614C90.5283 12.2627 90.5623 11.917 90.6303 11.577C90.6983 11.237 90.8116 10.9367 90.9703 10.676C91.1403 10.4153 91.3613 10.2057 91.6333 10.047C91.9053 9.877 92.2453 9.792 92.6533 9.792C93.0613 9.792 93.4013 9.877 93.6733 10.047C93.9566 10.2057 94.1776 10.4153 94.3363 10.676C94.5063 10.9367 94.6253 11.237 94.6933 11.577C94.7613 11.917 94.7953 12.2627 94.7953 12.614C94.7953 12.9653 94.7613 13.311 94.6933 13.651C94.6253 13.9797 94.5063 14.28 94.3363 14.552C94.1776 14.8127 93.9566 15.0223 93.6733 15.181C93.4013 15.3397 93.0613 15.419 92.6533 15.419C92.2453 15.419 91.9053 15.3397 91.6333 15.181C91.3613 15.0223 91.1403 14.8127 90.9703 14.552C90.8116 14.28 90.6983 13.9797 90.6303 13.651C90.5623 13.311 90.5283 12.9653 90.5283 12.614ZM88.1143 12.614C88.1143 13.3167 88.2219 13.9513 88.4373 14.518C88.6526 15.0847 88.9586 15.572 89.3553 15.98C89.7519 16.3767 90.2279 16.6827 90.7833 16.898C91.3386 17.1133 91.9619 17.221 92.6533 17.221C93.3446 17.221 93.9679 17.1133 94.5233 16.898C95.0899 16.6827 95.5716 16.3767 95.9683 15.98C96.3649 15.572 96.6709 15.0847 96.8863 14.518C97.1016 13.9513 97.2093 13.3167 97.2093 12.614C97.2093 11.9113 97.1016 11.2767 96.8863 10.71C96.6709 10.132 96.3649 9.64467 95.9683 9.248C95.5716 8.84 95.0899 8.52833 94.5233 8.313C93.9679 8.08633 93.3446 7.973 92.6533 7.973C91.9619 7.973 91.3386 8.08633 90.7833 8.313C90.2279 8.52833 89.7519 8.84 89.3553 9.248C88.9586 9.64467 88.6526 10.132 88.4373 10.71C88.2219 11.2767 88.1143 11.9113 88.1143 12.614ZM108.826 17L111.597 8.211H109.115L107.5 14.161H107.466L105.97 8.211H103.624L102.162 14.178H102.128L100.513 8.211H97.9628L100.751 17H103.25L104.746 11.101H104.78L106.344 17H108.826Z" fill="#292F33"/>
<path fill-rule="evenodd" clip-rule="evenodd" d="M1 2C1.55228 2 2 1.55228 2 1C2 0.447715 1.55228 0 1 0C0.447715 0 0 0.447715 0 1C0 1.55228 0.447715 2 1 2Z" transform="translate(118 13)" fill="#66757F"/>
<path fill-rule="evenodd" clip-rule="evenodd" d="M1 2C1.55228 2 2 1.55228 2 1C2 0.447715 1.55228 0 1 0C0.447715 0 0 0.447715 0 1C0 1.55228 0.447715 2 1 2Z" transform="translate(170 13)" fill="#66757F"/>
<path d="M1.38131 2.432V11H2.52131V7.34H5.30531C5.58531 7.34 5.80931 7.384 5.97731 7.472C6.14531 7.552 6.28131 7.664 6.38531 7.808C6.48931 7.944 6.56531 8.108 6.61331 8.3C6.66131 8.484 6.70131 8.68 6.73331 8.888C6.77331 9.096 6.79731 9.308 6.80531 9.524C6.81331 9.74 6.82131 9.944 6.82931 10.136C6.83731 10.32 6.85331 10.488 6.87731 10.64C6.90931 10.792 6.96531 10.912 7.04531 11H8.31731C8.19731 10.856 8.10531 10.692 8.04131 10.508C7.98531 10.316 7.94131 10.116 7.90931 9.908C7.87731 9.7 7.85731 9.488 7.84931 9.272C7.84131 9.056 7.82931 8.844 7.81331 8.636C7.78931 8.428 7.75331 8.228 7.70531 8.036C7.66531 7.844 7.59731 7.672 7.50131 7.52C7.41331 7.36 7.28931 7.224 7.12931 7.112C6.97731 7 6.77731 6.92 6.52931 6.872V6.848C7.04931 6.704 7.42531 6.436 7.65731 6.044C7.89731 5.652 8.01731 5.196 8.01731 4.676C8.01731 3.98 7.78531 3.432 7.32131 3.032C6.86531 2.632 6.22931 2.432 5.41331 2.432H1.38131ZM4.89731 6.38H2.52131V3.392H5.35331C5.88931 3.392 6.27731 3.528 6.51731 3.8C6.75731 4.072 6.87731 4.424 6.87731 4.856C6.87731 5.168 6.82131 5.424 6.70931 5.624C6.60531 5.816 6.46131 5.972 6.27731 6.092C6.10131 6.204 5.89331 6.28 5.65331 6.32C5.41331 6.36 5.16131 6.38 4.89731 6.38ZM13.7362 7.304H10.1722C10.1882 7.064 10.2402 6.84 10.3282 6.632C10.4162 6.416 10.5362 6.228 10.6882 6.068C10.8402 5.908 11.0202 5.784 11.2282 5.696C11.4442 5.6 11.6842 5.552 11.9482 5.552C12.2042 5.552 12.4362 5.6 12.6442 5.696C12.8602 5.784 13.0442 5.908 13.1962 6.068C13.3562 6.22 13.4802 6.404 13.5682 6.62C13.6642 6.836 13.7202 7.064 13.7362 7.304ZM14.7202 9.032H13.7122C13.6242 9.44 13.4402 9.744 13.1602 9.944C12.8882 10.144 12.5362 10.244 12.1042 10.244C11.7682 10.244 11.4762 10.188 11.2282 10.076C10.9802 9.964 10.7762 9.816 10.6162 9.632C10.4562 9.44 10.3402 9.224 10.2682 8.984C10.1962 8.736 10.1642 8.476 10.1722 8.204H14.8162C14.8322 7.828 14.7962 7.432 14.7082 7.016C14.6282 6.6 14.4762 6.216 14.2522 5.864C14.0362 5.512 13.7442 5.224 13.3762 5C13.0162 4.768 12.5602 4.652 12.0082 4.652C11.5842 4.652 11.1922 4.732 10.8322 4.892C10.4802 5.052 10.1722 5.276 9.90816 5.564C9.65216 5.852 9.45216 6.192 9.30816 6.584C9.16416 6.976 9.09216 7.408 9.09216 7.88C9.10816 8.352 9.17616 8.788 9.29616 9.188C9.42416 9.588 9.61216 9.932 9.86016 10.22C10.1082 10.508 10.4122 10.732 10.7722 10.892C11.1402 11.052 11.5722 11.132 12.0682 11.132C12.7722 11.132 13.3562 10.956 13.8202 10.604C14.2842 10.252 14.5842 9.728 14.7202 9.032ZM16.2935 5.696V11H17.3135V5.696H18.5135V4.796H17.3135V3.932C17.3135 3.66 17.3815 3.476 17.5175 3.38C17.6535 3.284 17.8455 3.236 18.0935 3.236C18.1815 3.236 18.2775 3.244 18.3815 3.26C18.4855 3.268 18.5815 3.288 18.6695 3.32V2.432C18.5735 2.4 18.4615 2.376 18.3335 2.36C18.2135 2.344 18.1055 2.336 18.0095 2.336C17.4495 2.336 17.0215 2.468 16.7255 2.732C16.4375 2.988 16.2935 3.368 16.2935 3.872V4.796H15.2495V5.696H16.2935ZM19.3883 4.796V11H20.4082V8.24C20.4082 7.84 20.4482 7.488 20.5283 7.184C20.6082 6.872 20.7362 6.608 20.9122 6.392C21.0882 6.176 21.3202 6.012 21.6083 5.9C21.8963 5.788 22.2443 5.732 22.6523 5.732V4.652C22.1003 4.636 21.6442 4.748 21.2842 4.988C20.9242 5.228 20.6202 5.6 20.3723 6.104H20.3483V4.796H19.3883ZM27.6229 7.304H24.0589C24.0749 7.064 24.1269 6.84 24.2149 6.632C24.3029 6.416 24.4229 6.228 24.5749 6.068C24.7269 5.908 24.9069 5.784 25.1149 5.696C25.3309 5.6 25.5709 5.552 25.8349 5.552C26.0909 5.552 26.3229 5.6 26.5309 5.696C26.7469 5.784 26.9309 5.908 27.0829 6.068C27.2429 6.22 27.3669 6.404 27.4549 6.62C27.5509 6.836 27.6069 7.064 27.6229 7.304ZM28.6069 9.032H27.5989C27.5109 9.44 27.3269 9.744 27.0469 9.944C26.7749 10.144 26.4229 10.244 25.9909 10.244C25.6549 10.244 25.3629 10.188 25.1149 10.076C24.8669 9.964 24.6629 9.816 24.5029 9.632C24.3429 9.44 24.2269 9.224 24.1549 8.984C24.0829 8.736 24.0509 8.476 24.0589 8.204H28.7029C28.7189 7.828 28.6829 7.432 28.5949 7.016C28.5149 6.6 28.3629 6.216 28.1389 5.864C27.9229 5.512 27.6309 5.224 27.2629 5C26.9029 4.768 26.4469 4.652 25.8949 4.652C25.4709 4.652 25.0789 4.732 24.7189 4.892C24.3669 5.052 24.0589 5.276 23.7949 5.564C23.5389 5.852 23.3389 6.192 23.1949 6.584C23.0509 6.976 22.9789 7.408 22.9789 7.88C22.9949 8.352 23.0629 8.788 23.1829 9.188C23.3109 9.588 23.4989 9.932 23.7469 10.22C23.9949 10.508 24.2989 10.732 24.6589 10.892C25.0269 11.052 25.4589 11.132 25.9549 11.132C26.6589 11.132 27.2429 10.956 27.7069 10.604C28.1709 10.252 28.4709 9.728 28.6069 9.032ZM30.2787 9.044H29.2587C29.2747 9.428 29.3547 9.756 29.4987 10.028C29.6427 10.292 29.8347 10.508 30.0747 10.676C30.3147 10.836 30.5907 10.952 30.9027 11.024C31.2147 11.096 31.5427 11.132 31.8867 11.132C32.1987 11.132 32.5107 11.1 32.8227 11.036C33.1427 10.98 33.4267 10.876 33.6747 10.724C33.9307 10.572 34.1347 10.372 34.2867 10.124C34.4467 9.876 34.5267 9.564 34.5267 9.188C34.5267 8.892 34.4667 8.644 34.3467 8.444C34.2347 8.244 34.0827 8.08 33.8907 7.952C33.7067 7.816 33.4907 7.708 33.2427 7.628C33.0027 7.548 32.7547 7.48 32.4987 7.424C32.2587 7.368 32.0187 7.316 31.7787 7.268C31.5387 7.212 31.3227 7.148 31.1307 7.076C30.9387 6.996 30.7787 6.9 30.6507 6.788C30.5307 6.668 30.4707 6.52 30.4707 6.344C30.4707 6.184 30.5107 6.056 30.5907 5.96C30.6707 5.856 30.7747 5.776 30.9027 5.72C31.0307 5.656 31.1707 5.612 31.3227 5.588C31.4827 5.564 31.6387 5.552 31.7907 5.552C31.9587 5.552 32.1227 5.572 32.2827 5.612C32.4507 5.644 32.6027 5.7 32.7387 5.78C32.8747 5.86 32.9867 5.968 33.0747 6.104C33.1627 6.232 33.2147 6.396 33.2307 6.596H34.2507C34.2267 6.22 34.1467 5.908 34.0107 5.66C33.8747 5.404 33.6907 5.204 33.4587 5.06C33.2347 4.908 32.9747 4.804 32.6787 4.748C32.3827 4.684 32.0587 4.652 31.7067 4.652C31.4347 4.652 31.1587 4.688 30.8787 4.76C30.6067 4.824 30.3587 4.928 30.1347 5.072C29.9187 5.208 29.7387 5.388 29.5947 5.612C29.4587 5.836 29.3907 6.104 29.3907 6.416C29.3907 6.816 29.4907 7.128 29.6907 7.352C29.8907 7.576 30.1387 7.752 30.4347 7.88C30.7387 8 31.0667 8.096 31.4187 8.168C31.7707 8.232 32.0947 8.308 32.3907 8.396C32.6947 8.476 32.9467 8.584 33.1467 8.72C33.3467 8.856 33.4467 9.056 33.4467 9.32C33.4467 9.512 33.3987 9.672 33.3027 9.8C33.2067 9.92 33.0827 10.012 32.9307 10.076C32.7867 10.14 32.6267 10.184 32.4507 10.208C32.2747 10.232 32.1067 10.244 31.9467 10.244C31.7387 10.244 31.5347 10.224 31.3347 10.184C31.1427 10.144 30.9667 10.08 30.8067 9.992C30.6547 9.896 30.5307 9.772 30.4347 9.62C30.3387 9.46 30.2867 9.268 30.2787 9.044ZM35.6547 2.432V11H36.6747V7.496C36.6747 7.216 36.7107 6.96 36.7827 6.728C36.8627 6.488 36.9787 6.28 37.1307 6.104C37.2827 5.928 37.4707 5.792 37.6947 5.696C37.9267 5.6 38.1987 5.552 38.5107 5.552C38.9027 5.552 39.2107 5.664 39.4347 5.888C39.6587 6.112 39.7707 6.416 39.7707 6.8V11H40.7907V6.92C40.7907 6.584 40.7547 6.28 40.6827 6.008C40.6187 5.728 40.5027 5.488 40.3347 5.288C40.1667 5.088 39.9467 4.932 39.6747 4.82C39.4027 4.708 39.0627 4.652 38.6547 4.652C38.4707 4.652 38.2787 4.672 38.0787 4.712C37.8867 4.752 37.6987 4.816 37.5147 4.904C37.3387 4.984 37.1787 5.092 37.0347 5.228C36.8907 5.356 36.7787 5.516 36.6987 5.708H36.6747V2.432H35.6547Z" transform="translate(125 6)" fill="#1DA1F2"/>
<path d="M4.59316 11L7.64116 2.432H6.45316L3.98116 9.86H3.95716L1.50916 2.432H0.285156L3.29716 11H4.59316ZM9.36362 3.68V2.432H8.34362V3.68H9.36362ZM8.34362 4.796V11H9.36362V4.796H8.34362ZM15.1463 7.304H11.5823C11.5983 7.064 11.6503 6.84 11.7383 6.632C11.8263 6.416 11.9463 6.228 12.0983 6.068C12.2503 5.908 12.4303 5.784 12.6383 5.696C12.8543 5.6 13.0943 5.552 13.3583 5.552C13.6143 5.552 13.8463 5.6 14.0543 5.696C14.2703 5.784 14.4543 5.908 14.6063 6.068C14.7663 6.22 14.8903 6.404 14.9783 6.62C15.0743 6.836 15.1303 7.064 15.1463 7.304ZM16.1303 9.032H15.1223C15.0343 9.44 14.8503 9.744 14.5703 9.944C14.2983 10.144 13.9463 10.244 13.5143 10.244C13.1783 10.244 12.8863 10.188 12.6383 10.076C12.3903 9.964 12.1863 9.816 12.0263 9.632C11.8663 9.44 11.7503 9.224 11.6783 8.984C11.6063 8.736 11.5743 8.476 11.5823 8.204H16.2263C16.2423 7.828 16.2063 7.432 16.1183 7.016C16.0383 6.6 15.8863 6.216 15.6623 5.864C15.4463 5.512 15.1543 5.224 14.7863 5C14.4263 4.768 13.9703 4.652 13.4183 4.652C12.9943 4.652 12.6023 4.732 12.2423 4.892C11.8903 5.052 11.5823 5.276 11.3183 5.564C11.0623 5.852 10.8623 6.192 10.7183 6.584C10.5743 6.976 10.5023 7.408 10.5023 7.88C10.5183 8.352 10.5863 8.788 10.7063 9.188C10.8343 9.588 11.0223 9.932 11.2703 10.22C11.5183 10.508 11.8223 10.732 12.1823 10.892C12.5503 11.052 12.9823 11.132 13.4783 11.132C14.1823 11.132 14.7663 10.956 15.2303 10.604C15.6943 10.252 15.9943 9.728 16.1303 9.032ZM23.4276 11L25.4076 4.796H24.3516L22.9596 9.872H22.9356L21.6396 4.796H20.5236L19.2756 9.872H19.2516L17.8476 4.796H16.7196L18.7116 11H19.8156L21.0636 6.068H21.0876L22.3476 11H23.4276ZM35.2132 10.976C35.0372 11.08 34.7932 11.132 34.4812 11.132C34.2172 11.132 34.0052 11.06 33.8452 10.916C33.6932 10.764 33.6172 10.52 33.6172 10.184C33.3372 10.52 33.0092 10.764 32.6332 10.916C32.2652 11.06 31.8652 11.132 31.4332 11.132C31.1532 11.132 30.8852 11.1 30.6292 11.036C30.3812 10.972 30.1652 10.872 29.9812 10.736C29.7972 10.6 29.6492 10.424 29.5372 10.208C29.4332 9.984 29.3812 9.716 29.3812 9.404C29.3812 9.052 29.4412 8.764 29.5612 8.54C29.6812 8.316 29.8372 8.136 30.0292 8C30.2292 7.856 30.4532 7.748 30.7012 7.676C30.9572 7.604 31.2172 7.544 31.4812 7.496C31.7612 7.44 32.0252 7.4 32.2732 7.376C32.5292 7.344 32.7532 7.304 32.9452 7.256C33.1372 7.2 33.2892 7.124 33.4012 7.028C33.5132 6.924 33.5692 6.776 33.5692 6.584C33.5692 6.36 33.5252 6.18 33.4372 6.044C33.3572 5.908 33.2492 5.804 33.1132 5.732C32.9852 5.66 32.8372 5.612 32.6692 5.588C32.5092 5.564 32.3492 5.552 32.1892 5.552C31.7572 5.552 31.3972 5.636 31.1092 5.804C30.8212 5.964 30.6652 6.272 30.6412 6.728H29.6212C29.6372 6.344 29.7172 6.02 29.8612 5.756C30.0052 5.492 30.1972 5.28 30.4372 5.12C30.6772 4.952 30.9492 4.832 31.2532 4.76C31.5652 4.688 31.8972 4.652 32.2492 4.652C32.5292 4.652 32.8052 4.672 33.0772 4.712C33.3572 4.752 33.6092 4.836 33.8332 4.964C34.0572 5.084 34.2372 5.256 34.3732 5.48C34.5092 5.704 34.5772 5.996 34.5772 6.356V9.548C34.5772 9.788 34.5892 9.964 34.6132 10.076C34.6452 10.188 34.7412 10.244 34.9012 10.244C34.9892 10.244 35.0932 10.224 35.2132 10.184V10.976ZM33.5572 7.796C33.4292 7.892 33.2612 7.964 33.0532 8.012C32.8452 8.052 32.6252 8.088 32.3932 8.12C32.1692 8.144 31.9412 8.176 31.7092 8.216C31.4772 8.248 31.2692 8.304 31.0852 8.384C30.9012 8.464 30.7492 8.58 30.6292 8.732C30.5172 8.876 30.4612 9.076 30.4612 9.332C30.4612 9.5 30.4932 9.644 30.5572 9.764C30.6292 9.876 30.7172 9.968 30.8212 10.04C30.9332 10.112 31.0612 10.164 31.2052 10.196C31.3492 10.228 31.5012 10.244 31.6612 10.244C31.9972 10.244 32.2852 10.2 32.5252 10.112C32.7652 10.016 32.9612 9.9 33.1132 9.764C33.2652 9.62 33.3772 9.468 33.4492 9.308C33.5212 9.14 33.5572 8.984 33.5572 8.84V7.796ZM36.2225 2.432V11H37.2425V2.432H36.2225ZM38.8827 2.432V11H39.9027V2.432H38.8827Z" transform="translate(177.5 6)" fill="#1DA1F2"/>
</svg>
